HIERARCHY
ROOT pelvis
{
  OFFSET 0 100 0
  CHANNELS 6 Xposition Yposition Zposition Zrotation Xrotation Yrotation
  JOINT pelvis_right_femur
  {
    OFFSET -10.78128 -3.44521 -0.5502486
    CHANNELS 3 Zrotation Xrotation Yrotation
    JOINT right_femur_tibia
    {
      OFFSET -0.8047443 -44.0398 -0.1307829
      CHANNELS 3 Zrotation Xrotation Yrotation
      JOINT right_tibia_foot
      {
        OFFSET 3.006224 -47.83518 -5
        CHANNELS 3 Zrotation Xrotation Yrotation
        End Site
        {
          OFFSET 0 -5 15
        }
      }
    }
  }
  JOINT pelvis_left_femur
  {
    OFFSET 10.78128 -3.44521 -0.5502486
    CHANNELS 3 Zrotation Xrotation Yrotation
    JOINT left_femur_tibia
    {
      OFFSET 0.8047443 -44.0398 -0.1307829
      CHANNELS 3 Zrotation Xrotation Yrotation
      JOINT left_tibia_foot
      {
        OFFSET -4.370144 -48.10324 -4.275266
        CHANNELS 3 Zrotation Xrotation Yrotation
        End Site
        {
          OFFSET 0 -5 15
        }
      }
    }
  }
  JOINT pelvis_spine1
  {
    OFFSET 0 6.468898 -3.129235
    CHANNELS 3 Zrotation Xrotation Yrotation
    JOINT spine1
    {
      OFFSET 0 23.15396 4.99043
      CHANNELS 3 Zrotation Xrotation Yrotation
      JOINT spine2
      {
        OFFSET 0 20.79997 -5.064912
        CHANNELS 3 Zrotation Xrotation Yrotation
        JOINT neck
        {
          OFFSET 0 14.38658 9.616178
          CHANNELS 3 Zrotation Xrotation Yrotation
          End Site
          {
            OFFSET 0 20 0
          }
        }
      }
      JOINT right_manubrium
      {
        OFFSET -5.722621 16.35077 3.967754
        CHANNELS 3 Zrotation Xrotation Yrotation
        JOINT right_clavicle
        {
          OFFSET -13.16364 1.694482 -4.693211
          CHANNELS 3 Zrotation Xrotation Yrotation
          JOINT right_humerus
          {
            OFFSET -28.5034 -0.3100689 -2.792744
            CHANNELS 3 Zrotation Xrotation Yrotation
            JOINT right_radius
            {
              OFFSET -25.15693 0.02248979 -1.271978
              CHANNELS 3 Zrotation Xrotation Yrotation
              End Site
              {
                OFFSET -15 0 0
              }
            }
          }
        }
      }
      JOINT left_manubrium
      {
        OFFSET 5.722621 16.35077 3.967754
        CHANNELS 3 Zrotation Xrotation Yrotation
        JOINT left_clavicle
        {
          OFFSET 13.16364 1.694482 -4.693211
          CHANNELS 3 Zrotation Xrotation Yrotation
          JOINT left_humerus
          {
            OFFSET 29.39168 -1.063119 -2.237045
            CHANNELS 3 Zrotation Xrotation Yrotation
            JOINT left_radius
            {
              OFFSET 24.59957 -0.9528479 0.9047498
              CHANNELS 3 Zrotation Xrotation Yrotation
              End Site
              {
                OFFSET 15 -0 -0
              }
            }
          }
        }
      }
    }
  }
}
MOTION
Frames: 19
Frame Time: 0.0416666666667
-1923.337 131.4895 678.6857 -5.170149 8.532427 -155.4883 2.048434 -4.124496 -2.964814 -0 17.64807 -0 -10.13255 -2.239707 -2.783703 -3.672799 2.384944 -8.400935 -0 15.31144 -0 2.363962 -11.88266 18.05723 -0.3090903 -3.39139 5.123967 0.1891164 14.98993 -4.034244 1.235343 22.25909 4.317642 3.496816 -17.59477 4.728917 1.404854 -24.78167 13.23655 84.44456 19.37058 -8.311575 -0 0 20.6668 -24.81634 14.39299 15.51459 4.965083 -22.59318 -8.139661 -94.70797 9.21326 28.0365 0 0 -2.812353 16.46847 17.1182 -8.071101
-1926.017 131.4176 673.7134 -5.132021 8.527121 -155.7386 2.02902 -4.485254 -3.006458 -0 17.55348 -0 -10.09997 -2.107105 -2.802836 -3.718653 2.66971 -8.385245 -0 15.36384 -0 2.389141 -11.98997 18.00841 -0.3209355 -3.376003 5.086837 0.1877982 14.96581 -4.042461 1.234639 22.29067 4.35241 3.526055 -17.6076 4.748428 1.412083 -24.69082 13.22771 84.47527 19.43122 -8.397373 -0 0 20.49318 -24.80333 14.3431 15.47176 5.010121 -22.62392 -8.138774 -94.64276 9.247005 27.8547 0 0 -2.936723 16.57682 17.12942 -8.195752
-1928.669 131.3416 668.7188 -5.097343 8.531629 -155.9863 2.023915 -4.825711 -3.046748 -0 17.40605 -0 -10.06569 -1.977987 -2.82568 -3.754658 2.934269 -8.349371 -0 15.4765 -0 2.41926 -12.07648 17.95981 -0.3308027 -3.363229 5.05074 0.1873331 14.94719 -4.053321 1.233675 22.31993 4.384847 3.55436 -17.6189 4.76512 1.418586 -24.60356 13.22089 84.50961 19.48044 -8.489395 -0 0 20.32496 -24.79641 14.30042 15.43038 5.053036 -22.65917 -8.14258 -94.57887 9.277589 27.67816 0 0 -3.061369 16.67996 17.14261 -8.314092
-1931.294 131.2622 663.6994 -5.065608 8.547405 -156.2347 2.033145 -5.130766 -3.084198 -0 17.21404 -0 -10.03182 -1.856534 -2.850945 -3.779678 3.168061 -8.295291 -0 15.64564 -0 2.453081 -12.13825 17.91362 -0.3383098 -3.353593 5.01723 0.1877222 14.93477 -4.066292 1.232483 22.34564 4.413638 3.580553 -17.62826 4.77834 1.424102 -24.5236 13.21634 84.54597 19.51643 -8.583513 -0 0 20.1693 -24.79573 14.2666 15.3922 5.092054 -22.69734 -8.150814 -94.51903 9.303688 27.51441 0 0 -3.181009 16.77375 17.15713 -8.421349
-1933.893 131.1808 658.6529 -5.036173 8.575494 -156.4873 2.05622 -5.387187 -3.11736 -0 16.98805 -0 -10.00057 -1.746579 -2.877298 -3.792967 3.361956 -8.225788 -0 15.86534 -0 2.489254 -12.1724 17.87194 -0.3431989 -3.347479 4.987727 0.1889321 14.92895 -4.080736 1.231104 22.36674 4.437665 3.603588 -17.6354 4.787613 1.42845 -24.45429 13.21425 84.58254 19.53809 -8.675487 -0 0 20.0327 -24.80114 14.2429 15.35882 5.125618 -22.73672 -8.163001 -94.46578 9.324193 27.37032 0 0 -3.290535 16.85458 17.1723 -8.513459
-1936.465 131.0987 653.5777 -5.008234 8.616395 -156.7474 2.092149 -5.584159 -3.144858 -0 16.74025 -0 -9.973961 -1.651714 -2.903461 -3.79416 3.508464 -8.144287 -0 16.12757 -0 2.52634 -12.17734 17.83662 -0.3453372 -3.345118 4.963462 0.190899 14.92984 -4.095941 1.229598 22.3824 4.456036 3.622586 -17.64015 4.792649 1.431531 -24.39847 13.21469 84.61751 19.54499 -8.761165 -0 0 19.92075 -24.81222 14.23008 15.33159 5.152438 -22.77555 -8.178494 -94.42141 9.338245 27.25187 0 0 -3.385219 16.91952 17.18742 -8.587138
-1939.01 131.0178 648.473 -4.980822 8.669952 -157.0178 2.139461 -5.713692 -3.165432 -0 16.48345 -0 -9.95366 -1.575332 -2.92828 -3.783271 3.601912 -8.054673 -0 16.42211 -0 2.562843 -12.15284 17.80921 -0.3447108 -3.346582 4.945432 0.1935317 14.9373 -4.111169 1.228033 22.39202 4.468098 3.636844 -17.64241 4.79334 1.433314 -24.35838 13.21762 84.6491 19.53732 -8.836674 -0 0 19.838 -24.82832 14.2285 15.31162 5.171513 -22.81212 -8.196516 -94.38783 9.345277 27.16391 0 0 -3.460908 16.96634 17.20178 -8.639905
-1941.53 130.9397 643.3388 -4.952832 8.735276 -157.3009 2.196223 -5.770895 -3.178017 -0 16.2303 -0 -9.940817 -1.520594 -2.950776 -3.7607 3.638608 -7.961088 -0 16.73683 -0 2.597257 -12.10009 17.79089 -0.3414142 -3.351781 4.93437 0.1967158 14.95089 -4.125692 1.226488 22.39527 4.473442 3.645856 -17.64218 4.789748 1.433822 -24.33559 13.2229 84.67573 19.51582 -8.898617 -0 0 19.78775 -24.84859 14.23805 15.29968 5.182156 -22.84479 -8.216204 -94.36649 9.34503 27.11 0 0 -3.514215 16.99348 17.21477 -8.670079
-1944.022 130.8659 638.1757 -4.923073 8.810737 -157.5987 2.260085 -5.754114 -3.181833 -0 15.99249 -0 -9.935979 -1.490272 -2.970161 -3.727252 3.616986 -7.867735 -0 17.05794 -0 2.628122 -12.02164 17.78241 -0.3356378 -3.360471 4.930711 0.2003168 14.96997 -4.138838 1.225042 22.39206 4.47191 3.649309 -17.63953 4.78209 1.433113 -24.33097 13.2303 84.6961 19.4817 -8.944229 -0 0 19.77197 -24.8721 14.25823 15.29623 5.183998 -22.87212 -8.23666 -94.35834 9.337563 27.0923 0 0 -3.542689 17.00006 17.22583 -8.676761
-1946.488 130.7979 632.9855 -4.890341 8.894023 -157.9124 2.32834 -5.664929 -3.17647 -0 15.7802 -0 -9.939074 -1.48653 -2.985834 -3.684145 3.537742 -7.778685 -0 17.37065 -0 2.654086 -11.92131 17.78406 -0.3276548 -3.37226 4.934583 0.2041838 14.99369 -4.150019 1.223776 22.38258 4.463595 3.647097 -17.63456 4.770724 1.431268 -24.34463 13.2395 84.70925 19.43652 -8.971513 -0 0 19.79125 -24.89779 14.28814 15.30138 5.177001 -22.89293 -8.256986 -94.36375 9.323247 27.11146 0 0 -3.544952 16.98591 17.23451 -8.65982
-1948.927 130.7363 627.7705 -4.853512 8.982262 -158.2425 2.398018 -5.508032 -3.161967 -0 15.6017 -0 -9.949466 -1.510632 -2.997363 -3.633012 3.403914 -7.697699 -0 17.6598 -0 2.673974 -11.80399 17.79566 -0.317809 -3.386626 4.945799 0.2081544 15.02102 -4.158762 1.222757 22.36726 4.448835 3.639316 -17.62745 4.756131 1.428381 -24.37593 13.25009 84.71467 19.38219 -8.979337 -0 0 19.84471 -24.92461 14.32653 15.31489 5.161456 -22.90631 -8.276327 -94.38249 9.30275 27.16662 0 0 -3.520798 16.95156 17.24048 -8.619894
-1951.337 130.6815 622.5337 -4.811639 9.07221 -158.5891 2.466008 -5.290979 -3.138848 -0 15.4632 -0 -9.966066 -1.562668 -3.004459 -3.575883 3.220906 -7.628092 -0 17.91083 -0 2.686847 -11.67532 17.81659 -0.3065041 -3.402935 4.963859 0.2120592 15.05083 -4.164724 1.222043 22.34676 4.428217 3.626269 -17.61843 4.738907 1.424552 -24.42351 13.26161 84.71224 19.32083 -8.967486 -0 0 19.93004 -24.95148 14.3718 15.33618 5.137987 -22.91169 -8.293896 -94.41375 9.277009 27.25536 0 0 -3.471243 16.89822 17.24354 -8.558405
-1953.718 130.6334 617.2783 -4.764046 9.160476 -158.9512 2.529201 -5.023826 -3.108133 -0 15.36885 -0 -9.987481 -1.641321 -3.006956 -3.515139 2.996398 -7.572615 -0 18.1107 -0 2.692059 -11.54142 17.84578 -0.2941938 -3.420465 4.987967 0.2157285 15.08186 -4.167704 1.22167 22.32198 4.402562 3.608467 -17.6078 4.719742 1.41989 -24.48529 13.27355 84.70229 19.25481 -8.936664 -0 0 20.04356 -24.97736 14.42208 15.36435 5.107538 -22.9089 -8.308998 -94.45612 9.247191 27.37381 0 0 -3.398517 16.82786 17.24361 -8.47758
-1956.07 130.5913 612.0077 -4.7104 9.243767 -159.3274 2.584655 -4.718676 -3.071285 -0 15.32085 -0 -10.01218 -1.743744 -3.004801 -3.453435 2.740135 -7.533389 -0 18.24887 -0 2.689298 -11.40857 17.88183 -0.2813721 -3.438435 5.017054 0.2189994 15.1128 -4.167643 1.221655 22.29399 4.372919 3.586623 -17.5959 4.699413 1.414522 -24.55857 13.28539 84.68552 19.1867 -8.888457 -0 0 20.18033 -25.00123 14.47528 15.39817 5.071364 -22.89809 -8.321052 -94.50766 9.214639 27.51674 0 0 -3.305982 16.74317 17.24073 -8.380467
-1958.393 130.5541 606.7253 -4.650763 9.319122 -159.7154 2.629748 -4.389147 -3.030138 -0 15.31969 -0 -10.03864 -1.865563 -2.998056 -3.393596 2.463566 -7.511857 -0 18.31807 -0 2.678619 -11.28284 17.92302 -0.2685616 -3.456041 5.049822 0.2217237 15.14232 -4.164616 1.221992 22.264 4.340536 3.56164 -17.58318 4.678758 1.408599 -24.64011 13.29658 84.66293 19.11918 -8.825246 -0 0 20.33429 -25.02217 14.52911 15.43616 5.030992 -22.87981 -8.329595 -94.566 9.180818 27.67779 0 0 -3.197992 16.64756 17.23506 -8.27092
-1960.685 130.5205 601.4341 -4.585604 9.384119 -160.1125 2.662334 -4.049786 -2.986775 -0 15.36431 -0 -10.06549 -2.001032 -2.98691 -3.338481 2.179353 -7.508769 -0 18.31495 -0 2.660454 -11.1698 17.96746 -0.2563 -3.472489 5.084793 0.2237754 15.16915 -4.158821 1.222651 22.23334 4.30682 3.534586 -17.57016 4.658659 1.40231 -24.72626 13.30661 84.63577 19.05506 -8.750076 -0 0 20.49852 -25.03931 14.58121 15.47662 4.988182 -22.85496 -8.334301 -94.6284 9.147246 27.84968 0 0 -3.079675 16.5451 17.22685 -8.153529
-1962.946 130.4892 596.1369 -4.515768 9.437019 -160.5156 2.680864 -3.715465 -2.943399 -0 15.45233 -0 -10.0916 -2.143335 -2.971697 -3.290821 1.900758 -7.52417 -0 18.24033 -0 2.635611 -11.07431 18.01316 -0.2451212 -3.487033 5.120378 0.2250576 15.19207 -4.150563 1.223588 22.20338 4.273289 3.50666 -17.55742 4.640002 1.395883 -24.81314 13.31503 84.60541 18.99714 -8.666498 -0 0 20.66554 -25.05188 14.62921 15.51772 4.944857 -22.82471 -8.334985 -94.69197 9.115425 28.02458 0 0 -2.956668 16.44035 17.21645 -8.033486
-1965.178 130.4588 590.8358 -4.442414 9.476845 -160.9213 2.684483 -3.400762 -2.902193 -0 15.58013 -0 -10.1161 -2.285017 -2.952917 -3.253049 1.640941 -7.557399 -0 18.09907 -0 2.605251 -11.00029 18.0581 -0.2355335 -3.499014 5.154948 0.2255092 15.21004 -4.140233 1.224742 22.17548 4.241498 3.479141 -17.54556 4.623645 1.389589 -24.89676 13.32145 84.57326 18.9481 -8.578382 -0 0 20.82769 -25.0593 14.67089 15.55757 4.903013 -22.79047 -8.331614 -94.75371 9.086772 28.19444 0 0 -2.834805 16.33819 17.20431 -7.916365
-1967.379 130.4282 585.5325 -4.366916 9.503391 -161.3259 2.67308 -3.11937 -2.865183 -0 15.74291 -0 -10.13842 -2.418498 -2.931244 -3.22713 1.412245 -7.607099 -0 17.89971 -0 2.570834 -10.95059 18.10035 -0.2279927 -3.507893 5.186919 0.2251076 15.22222 -4.128286 1.226045 22.15092 4.212957 3.453324 -17.53521 4.610368 1.38373 -24.9733 13.32558 84.54072 18.91036 -8.489727 -0 0 20.97744 -25.06113 14.70426 15.59432 4.864625 -22.75384 -8.324309 -94.81079 9.062553 28.35143 0 0 -2.719794 16.24356 17.19092 -7.807828
